<?xml version="1.0" encoding="utf-8"?>
<svg viewBox="269.631 153.328 649.4935 155.645" width="649.4935" height="155.645" xmlns="http://www.w3.org/2000/svg">
  <defs/>
  <text style="font-family: 'Rethink Sans'; font-size: 103px; font-weight: 700; white-space: pre;" x="437.605" y="275.77">Toolhouse</text>
  <path stroke-linecap="round" fill="none" stroke-linejoin="round" d="M 292.01 209.565 L 346.317 167.326 L 400.626 209.565 L 400.626 275.942 C 400.626 276.139 400.621 276.336 400.61 276.534 C 400.601 276.731 400.587 276.928 400.568 277.125 C 400.548 277.321 400.524 277.517 400.495 277.711 C 400.465 277.907 400.431 278.102 400.394 278.296 C 400.355 278.49 400.312 278.682 400.264 278.874 C 400.216 279.066 400.163 279.255 400.106 279.444 C 400.049 279.634 399.987 279.821 399.92 280.007 C 399.854 280.193 399.783 280.377 399.708 280.56 C 399.631 280.743 399.552 280.923 399.466 281.101 C 399.382 281.28 399.294 281.456 399.2 281.63 C 399.107 281.804 399.01 281.977 398.909 282.147 C 398.807 282.315 398.701 282.483 398.592 282.646 C 398.482 282.811 398.369 282.973 398.251 283.131 C 398.133 283.289 398.011 283.445 397.886 283.597 C 397.761 283.75 397.632 283.9 397.5 284.047 C 397.366 284.192 397.231 284.336 397.091 284.475 C 396.951 284.615 396.808 284.751 396.662 284.884 C 396.515 285.016 396.366 285.146 396.213 285.27 C 396.061 285.396 395.906 285.518 395.746 285.635 C 395.588 285.753 395.426 285.867 395.262 285.976 C 395.097 286.086 394.931 286.191 394.761 286.294 C 394.591 286.395 394.42 286.492 394.246 286.586 C 394.071 286.678 393.896 286.767 393.717 286.852 C 393.538 286.936 393.358 287.015 393.176 287.091 C 392.993 287.167 392.809 287.238 392.622 287.304 C 392.437 287.37 392.25 287.433 392.061 287.49 C 391.871 287.548 391.681 287.6 391.49 287.648 C 391.298 287.696 391.106 287.74 390.911 287.778 C 390.718 287.817 390.523 287.85 390.328 287.879 C 390.133 287.907 389.937 287.932 389.74 287.952 C 389.543 287.971 389.347 287.985 389.15 287.996 C 388.951 288.005 388.755 288.01 388.557 288.01 L 304.078 288.01 C 303.881 288.01 303.684 288.005 303.486 287.996 C 303.289 287.985 303.092 287.971 302.895 287.952 C 302.699 287.932 302.503 287.907 302.307 287.879 C 302.113 287.85 301.918 287.817 301.723 287.778 C 301.53 287.74 301.338 287.696 301.146 287.648 C 300.954 287.6 300.764 287.548 300.575 287.49 C 300.386 287.433 300.199 287.37 300.012 287.304 C 299.827 287.238 299.643 287.167 299.46 287.091 C 299.277 287.015 299.097 286.936 298.919 286.852 C 298.74 286.767 298.563 286.678 298.39 286.586 C 298.216 286.492 298.043 286.395 297.873 286.294 C 297.705 286.191 297.537 286.086 297.374 285.976 C 297.209 285.867 297.047 285.753 296.889 285.635 C 296.731 285.518 296.575 285.396 296.423 285.27 C 296.27 285.146 296.12 285.016 295.973 284.884 C 295.828 284.751 295.685 284.615 295.545 284.475 C 295.405 284.336 295.269 284.192 295.136 284.047 C 295.004 283.9 294.876 283.75 294.75 283.597 C 294.624 283.445 294.502 283.289 294.385 283.131 C 294.267 282.973 294.153 282.811 294.044 282.646 C 293.934 282.483 293.829 282.315 293.726 282.147 C 293.625 281.977 293.528 281.804 293.434 281.63 C 293.342 281.456 293.253 281.28 293.168 281.101 C 293.084 280.923 293.005 280.743 292.928 280.56 C 292.853 280.377 292.782 280.193 292.716 280.007 C 292.65 279.821 292.587 279.634 292.53 279.444 C 292.472 279.255 292.42 279.066 292.372 278.874 C 292.324 278.682 292.28 278.49 292.242 278.296 C 292.203 278.102 292.17 277.907 292.141 277.711 C 292.112 277.517 292.088 277.321 292.068 277.125 C 292.049 276.928 292.035 276.731 292.024 276.534 C 292.015 276.336 292.01 276.139 292.01 275.942 L 292.01 209.565 Z M 292.01 209.565" stroke="#000000" stroke-opacity="1" stroke-miterlimit="4" style="stroke-width: 11px;"/>
  <path stroke-linecap="round" fill="none" stroke-linejoin="round" d="M 355.298 219.296 L 367.232 231.23" stroke="#000000" stroke-opacity="1" stroke-miterlimit="4" style="stroke-width: 4px;"/>
  <path stroke-linecap="round" fill="none" stroke-linejoin="round" d="M 349.331 225.263 L 336.501 212.435 C 336.335 212.269 336.16 212.112 335.979 211.963 C 335.797 211.815 335.609 211.675 335.413 211.545 C 335.217 211.415 335.016 211.295 334.809 211.184 C 334.601 211.074 334.39 210.974 334.173 210.885 C 333.955 210.795 333.735 210.716 333.51 210.649 C 333.284 210.58 333.057 210.524 332.828 210.479 C 332.597 210.432 332.365 210.398 332.131 210.375 C 331.898 210.352 331.664 210.341 331.429 210.341 C 331.193 210.341 330.96 210.352 330.726 210.375 C 330.493 210.398 330.261 210.432 330.03 210.479 C 329.8 210.524 329.573 210.58 329.347 210.649 C 329.123 210.716 328.902 210.795 328.686 210.885 C 328.468 210.974 328.256 211.074 328.049 211.184 C 327.841 211.295 327.64 211.415 327.444 211.545 C 327.25 211.675 327.06 211.815 326.879 211.963 C 326.697 212.112 326.523 212.269 326.357 212.435 L 318.6 220.192 C 318.434 220.358 318.277 220.532 318.128 220.714 C 317.98 220.895 317.84 221.085 317.71 221.279 C 317.58 221.475 317.46 221.676 317.35 221.884 C 317.239 222.091 317.139 222.303 317.05 222.521 C 316.96 222.737 316.881 222.958 316.814 223.182 C 316.745 223.407 316.689 223.635 316.644 223.866 C 316.597 224.095 316.563 224.328 316.54 224.561 C 316.517 224.795 316.506 225.028 316.506 225.263 C 316.506 225.499 316.517 225.733 316.54 225.966 C 316.563 226.2 316.597 226.432 316.644 226.663 C 316.689 226.892 316.745 227.119 316.814 227.345 C 316.881 227.569 316.96 227.79 317.05 228.008 C 317.139 228.224 317.239 228.436 317.35 228.643 C 317.46 228.851 317.58 229.052 317.71 229.248 C 317.84 229.444 317.98 229.632 318.128 229.814 C 318.277 229.995 318.434 230.17 318.6 230.336 L 331.429 243.164" stroke="#000000" stroke-opacity="1" stroke-miterlimit="4" style="stroke-width: 4px;"/>
  <path stroke-linecap="round" fill="none" stroke-linejoin="round" d="M 334.413 222.279 L 340.38 216.312" stroke="#000000" stroke-opacity="1" stroke-miterlimit="4" style="stroke-width: 4px;"/>
  <path stroke-linecap="round" fill="none" stroke-linejoin="round" d="M 316.512 270.016 L 332.921 265.541 L 373.706 224.756 C 373.901 224.561 374.087 224.356 374.262 224.142 C 374.437 223.929 374.602 223.708 374.755 223.478 C 374.908 223.248 375.05 223.011 375.18 222.767 C 375.31 222.523 375.428 222.274 375.534 222.019 C 375.639 221.764 375.733 221.504 375.813 221.239 C 375.892 220.974 375.96 220.707 376.013 220.436 C 376.067 220.165 376.108 219.893 376.135 219.616 C 376.161 219.343 376.175 219.066 376.175 218.79 C 376.175 218.514 376.161 218.239 376.134 217.964 C 376.106 217.689 376.066 217.415 376.013 217.145 C 375.958 216.874 375.891 216.605 375.812 216.341 C 375.731 216.076 375.638 215.817 375.532 215.562 C 375.427 215.307 375.309 215.057 375.178 214.813 C 375.048 214.57 374.906 214.334 374.752 214.103 C 374.599 213.874 374.434 213.652 374.259 213.439 C 374.084 213.225 373.898 213.02 373.704 212.825 C 373.508 212.629 373.303 212.444 373.089 212.269 C 372.876 212.094 372.654 211.929 372.425 211.776 C 372.195 211.622 371.958 211.48 371.714 211.35 C 371.471 211.219 371.221 211.101 370.967 210.996 C 370.711 210.89 370.451 210.798 370.187 210.717 C 369.923 210.637 369.655 210.57 369.384 210.516 C 369.113 210.462 368.839 210.422 368.566 210.394 C 368.291 210.367 368.014 210.353 367.738 210.353 C 367.462 210.353 367.185 210.367 366.912 210.393 C 366.637 210.42 366.363 210.462 366.092 210.515 C 365.821 210.57 365.554 210.636 365.289 210.716 C 365.024 210.797 364.765 210.889 364.509 210.994 C 364.254 211.1 364.005 211.218 363.761 211.348 C 363.517 211.479 363.281 211.62 363.051 211.773 C 362.822 211.926 362.599 212.091 362.386 212.266 C 362.172 212.441 361.968 212.627 361.772 212.821 L 320.987 253.607 L 316.512 270.016 Z M 316.512 270.016" stroke="#000000" stroke-opacity="1" stroke-miterlimit="4" style="stroke-width: 4px;"/>
  <path stroke-linecap="round" fill="none" stroke-linejoin="round" d="M 364.249 252.115 L 370.216 246.148" stroke="#000000" stroke-opacity="1" stroke-miterlimit="4" style="stroke-width: 4px;"/>
  <path stroke-linecap="round" fill="none" stroke-linejoin="round" d="M 361.265 237.197 L 374.094 250.028 C 376.899 252.832 376.899 257.367 374.094 260.172 L 366.337 267.929 C 363.533 270.734 358.998 270.734 356.193 267.929 L 343.364 255.099" stroke="#000000" stroke-opacity="1" stroke-miterlimit="4" style="stroke-width: 4px;"/>
</svg>