<?xml version="1.0" encoding="utf-8"?>
<svg viewBox="269.631 153.328 649.4935 155.645" width="649.4935" height="155.645" xmlns="http://www.w3.org/2000/svg">
  <defs/>
  <path d="M 460.986 275.77 L 460.986 214.897 L 439.974 214.897 L 439.974 203.67 L 495.285 203.67 L 495.285 214.897 L 474.17 214.897 L 474.17 275.77 Z M 515.779 277.006 Q 508.054 277.006 502.028 273.658 Q 496.003 270.311 492.604 264.234 Q 489.205 258.157 489.205 250.226 Q 489.205 241.883 492.861 235.857 Q 496.518 229.832 502.646 226.639 Q 508.775 223.446 516.191 223.446 Q 523.916 223.446 529.993 226.793 Q 536.07 230.141 539.623 236.115 Q 543.177 242.089 543.177 250.226 Q 543.177 257.951 539.675 264.028 Q 536.173 270.105 530.044 273.555 Q 523.916 277.006 515.779 277.006 Z M 515.985 265.573 Q 520.105 265.573 523.143 263.461 Q 526.182 261.35 527.933 257.796 Q 529.684 254.243 529.684 250.02 Q 529.684 245.179 527.778 241.78 Q 525.873 238.381 522.783 236.63 Q 519.693 234.879 515.985 234.879 Q 511.968 234.879 508.929 236.836 Q 505.891 238.793 504.191 242.243 Q 502.492 245.694 502.492 250.226 Q 502.492 254.758 504.294 258.26 Q 506.097 261.762 509.187 263.667 Q 512.277 265.573 515.985 265.573 Z M 575.725 277.006 Q 568 277.006 561.975 273.658 Q 555.949 270.311 552.55 264.234 Q 549.151 258.157 549.151 250.226 Q 549.151 241.883 552.808 235.857 Q 556.464 229.832 562.593 226.639 Q 568.721 223.446 576.137 223.446 Q 583.862 223.446 589.939 226.793 Q 596.016 230.141 599.57 236.115 Q 603.123 242.089 603.123 250.226 Q 603.123 257.951 599.621 264.028 Q 596.119 270.105 589.991 273.555 Q 583.862 277.006 575.725 277.006 Z M 575.931 265.573 Q 580.051 265.573 583.09 263.461 Q 586.128 261.35 587.879 257.796 Q 589.63 254.243 589.63 250.02 Q 589.63 245.179 587.725 241.78 Q 585.819 238.381 582.729 236.63 Q 579.639 234.879 575.931 234.879 Q 571.914 234.879 568.876 236.836 Q 565.837 238.793 564.138 242.243 Q 562.438 245.694 562.438 250.226 Q 562.438 254.758 564.241 258.26 Q 566.043 261.762 569.133 263.667 Q 572.223 265.573 575.931 265.573 Z M 610.232 275.77 L 610.232 203.67 L 623.416 203.67 L 623.416 275.77 Z M 632.789 275.77 L 632.789 203.67 L 645.87 203.67 L 645.87 230.656 Q 648.548 227.051 653.029 225.248 Q 657.509 223.446 662.041 223.446 Q 670.899 223.446 676.564 229.162 Q 682.229 234.879 682.229 245.694 L 682.229 275.77 L 669.148 275.77 L 669.148 247.445 Q 669.148 241.677 666.213 238.123 Q 663.277 234.57 657.612 234.57 Q 651.947 234.57 648.909 238.123 Q 645.87 241.677 645.87 247.445 L 645.87 275.77 Z M 715.601 277.006 Q 707.876 277.006 701.85 273.658 Q 695.825 270.311 692.426 264.234 Q 689.027 258.157 689.027 250.226 Q 689.027 241.883 692.683 235.857 Q 696.34 229.832 702.468 226.639 Q 708.597 223.446 716.013 223.446 Q 723.738 223.446 729.815 226.793 Q 735.892 230.141 739.445 236.115 Q 742.999 242.089 742.999 250.226 Q 742.999 257.951 739.497 264.028 Q 735.995 270.105 729.866 273.555 Q 723.738 277.006 715.601 277.006 Z M 715.807 265.573 Q 719.927 265.573 722.965 263.461 Q 726.004 261.35 727.755 257.796 Q 729.506 254.243 729.506 250.02 Q 729.506 245.179 727.6 241.78 Q 725.695 238.381 722.605 236.63 Q 719.515 234.879 715.807 234.879 Q 711.79 234.879 708.751 236.836 Q 705.713 238.793 704.013 242.243 Q 702.314 245.694 702.314 250.226 Q 702.314 254.758 704.116 258.26 Q 705.919 261.762 709.009 263.667 Q 712.099 265.573 715.807 265.573 Z M 770.599 277.006 Q 764.007 277.006 759.372 274.173 Q 754.737 271.341 752.265 266.345 Q 749.793 261.35 749.793 254.964 L 749.793 224.682 L 762.874 224.682 L 762.874 253.007 Q 762.874 258.672 765.809 262.277 Q 768.745 265.882 774.41 265.882 Q 780.281 265.882 783.165 262.38 Q 786.049 258.878 786.049 253.007 L 786.049 224.682 L 799.233 224.682 L 799.233 275.77 L 786.049 275.77 L 786.049 269.796 Q 783.474 273.298 779.302 275.152 Q 775.131 277.006 770.599 277.006 Z M 829.416 277.006 Q 823.648 277.006 818.601 274.894 Q 813.554 272.783 810.309 268.869 Q 807.065 264.955 806.756 259.702 L 819.94 259.702 Q 820.455 262.998 823.184 264.852 Q 825.914 266.706 829.313 266.706 Q 832.197 266.706 834.72 265.418 Q 837.244 264.131 837.244 261.35 Q 837.244 259.187 835.39 257.951 Q 833.536 256.715 831.064 255.994 Q 828.592 255.273 826.532 254.758 Q 821.382 253.522 817.159 251.822 Q 812.936 250.123 810.464 247.084 Q 807.992 244.046 807.992 238.999 Q 807.992 234.055 810.824 230.553 Q 813.657 227.051 818.343 225.248 Q 823.03 223.446 828.489 223.446 Q 837.038 223.446 842.909 227.772 Q 848.78 232.098 849.295 240.544 L 836.832 240.544 Q 836.523 237.248 834.102 235.548 Q 831.682 233.849 828.077 233.849 Q 825.193 233.849 822.927 234.879 Q 820.661 235.909 820.661 238.793 Q 820.661 240.853 822.515 242.14 Q 824.369 243.428 826.944 244.2 Q 829.519 244.973 831.476 245.488 Q 836.832 246.827 840.9 248.578 Q 844.969 250.329 847.338 253.316 Q 849.707 256.303 849.81 261.35 Q 849.81 266.397 846.977 269.899 Q 844.145 273.401 839.51 275.203 Q 834.875 277.006 829.416 277.006 Z M 881.738 277.006 Q 873.704 277.006 867.885 273.504 Q 862.065 270.002 858.872 263.925 Q 855.679 257.848 855.679 250.226 Q 855.679 242.089 858.975 236.115 Q 862.271 230.141 868.142 226.793 Q 874.013 223.446 881.738 223.446 Q 889.36 223.446 895.077 226.742 Q 900.793 230.038 904.038 235.806 Q 907.282 241.574 907.282 249.093 Q 907.282 250.432 907.179 251.719 Q 907.076 253.007 906.87 254.14 L 868.966 254.14 Q 869.275 257.745 870.872 260.474 Q 872.468 263.204 875.198 264.697 Q 877.927 266.191 881.429 266.191 Q 885.034 266.191 887.661 264.646 Q 890.287 263.101 891.832 259.908 L 905.943 259.908 Q 904.501 264.44 901.308 268.354 Q 898.115 272.268 893.223 274.637 Q 888.33 277.006 881.738 277.006 Z M 869.069 245.385 L 893.686 245.385 Q 893.583 240.235 889.927 237.248 Q 886.27 234.261 881.326 234.261 Q 877.103 234.261 873.498 236.887 Q 869.893 239.514 869.069 245.385 Z"/>
  <path stroke-linecap="round" fill="none" stroke-linejoin="round" d="M 292.01 209.565 L 346.317 167.326 L 400.626 209.565 L 400.626 275.942 C 400.626 276.139 400.621 276.336 400.61 276.534 C 400.601 276.731 400.587 276.928 400.568 277.125 C 400.548 277.321 400.524 277.517 400.495 277.711 C 400.465 277.907 400.431 278.102 400.394 278.296 C 400.355 278.49 400.312 278.682 400.264 278.874 C 400.216 279.066 400.163 279.255 400.106 279.444 C 400.049 279.634 399.987 279.821 399.92 280.007 C 399.854 280.193 399.783 280.377 399.708 280.56 C 399.631 280.743 399.552 280.923 399.466 281.101 C 399.382 281.28 399.294 281.456 399.2 281.63 C 399.107 281.804 399.01 281.977 398.909 282.147 C 398.807 282.315 398.701 282.483 398.592 282.646 C 398.482 282.811 398.369 282.973 398.251 283.131 C 398.133 283.289 398.011 283.445 397.886 283.597 C 397.761 283.75 397.632 283.9 397.5 284.047 C 397.366 284.192 397.231 284.336 397.091 284.475 C 396.951 284.615 396.808 284.751 396.662 284.884 C 396.515 285.016 396.366 285.146 396.213 285.27 C 396.061 285.396 395.906 285.518 395.746 285.635 C 395.588 285.753 395.426 285.867 395.262 285.976 C 395.097 286.086 394.931 286.191 394.761 286.294 C 394.591 286.395 394.42 286.492 394.246 286.586 C 394.071 286.678 393.896 286.767 393.717 286.852 C 393.538 286.936 393.358 287.015 393.176 287.091 C 392.993 287.167 392.809 287.238 392.622 287.304 C 392.437 287.37 392.25 287.433 392.061 287.49 C 391.871 287.548 391.681 287.6 391.49 287.648 C 391.298 287.696 391.106 287.74 390.911 287.778 C 390.718 287.817 390.523 287.85 390.328 287.879 C 390.133 287.907 389.937 287.932 389.74 287.952 C 389.543 287.971 389.347 287.985 389.15 287.996 C 388.951 288.005 388.755 288.01 388.557 288.01 L 304.078 288.01 C 303.881 288.01 303.684 288.005 303.486 287.996 C 303.289 287.985 303.092 287.971 302.895 287.952 C 302.699 287.932 302.503 287.907 302.307 287.879 C 302.113 287.85 301.918 287.817 301.723 287.778 C 301.53 287.74 301.338 287.696 301.146 287.648 C 300.954 287.6 300.764 287.548 300.575 287.49 C 300.386 287.433 300.199 287.37 300.012 287.304 C 299.827 287.238 299.643 287.167 299.46 287.091 C 299.277 287.015 299.097 286.936 298.919 286.852 C 298.74 286.767 298.563 286.678 298.39 286.586 C 298.216 286.492 298.043 286.395 297.873 286.294 C 297.705 286.191 297.537 286.086 297.374 285.976 C 297.209 285.867 297.047 285.753 296.889 285.635 C 296.731 285.518 296.575 285.396 296.423 285.27 C 296.27 285.146 296.12 285.016 295.973 284.884 C 295.828 284.751 295.685 284.615 295.545 284.475 C 295.405 284.336 295.269 284.192 295.136 284.047 C 295.004 283.9 294.876 283.75 294.75 283.597 C 294.624 283.445 294.502 283.289 294.385 283.131 C 294.267 282.973 294.153 282.811 294.044 282.646 C 293.934 282.483 293.829 282.315 293.726 282.147 C 293.625 281.977 293.528 281.804 293.434 281.63 C 293.342 281.456 293.253 281.28 293.168 281.101 C 293.084 280.923 293.005 280.743 292.928 280.56 C 292.853 280.377 292.782 280.193 292.716 280.007 C 292.65 279.821 292.587 279.634 292.53 279.444 C 292.472 279.255 292.42 279.066 292.372 278.874 C 292.324 278.682 292.28 278.49 292.242 278.296 C 292.203 278.102 292.17 277.907 292.141 277.711 C 292.112 277.517 292.088 277.321 292.068 277.125 C 292.049 276.928 292.035 276.731 292.024 276.534 C 292.015 276.336 292.01 276.139 292.01 275.942 L 292.01 209.565 Z M 292.01 209.565" stroke="#000000" stroke-opacity="1" stroke-miterlimit="4" style="stroke-width: 11px;"/>
  <path stroke-linecap="round" fill="none" stroke-linejoin="round" d="M 355.298 219.296 L 367.232 231.23" stroke="#000000" stroke-opacity="1" stroke-miterlimit="4" style="stroke-width: 4px;"/>
  <path stroke-linecap="round" fill="none" stroke-linejoin="round" d="M 349.331 225.263 L 336.501 212.435 C 336.335 212.269 336.16 212.112 335.979 211.963 C 335.797 211.815 335.609 211.675 335.413 211.545 C 335.217 211.415 335.016 211.295 334.809 211.184 C 334.601 211.074 334.39 210.974 334.173 210.885 C 333.955 210.795 333.735 210.716 333.51 210.649 C 333.284 210.58 333.057 210.524 332.828 210.479 C 332.597 210.432 332.365 210.398 332.131 210.375 C 331.898 210.352 331.664 210.341 331.429 210.341 C 331.193 210.341 330.96 210.352 330.726 210.375 C 330.493 210.398 330.261 210.432 330.03 210.479 C 329.8 210.524 329.573 210.58 329.347 210.649 C 329.123 210.716 328.902 210.795 328.686 210.885 C 328.468 210.974 328.256 211.074 328.049 211.184 C 327.841 211.295 327.64 211.415 327.444 211.545 C 327.25 211.675 327.06 211.815 326.879 211.963 C 326.697 212.112 326.523 212.269 326.357 212.435 L 318.6 220.192 C 318.434 220.358 318.277 220.532 318.128 220.714 C 317.98 220.895 317.84 221.085 317.71 221.279 C 317.58 221.475 317.46 221.676 317.35 221.884 C 317.239 222.091 317.139 222.303 317.05 222.521 C 316.96 222.737 316.881 222.958 316.814 223.182 C 316.745 223.407 316.689 223.635 316.644 223.866 C 316.597 224.095 316.563 224.328 316.54 224.561 C 316.517 224.795 316.506 225.028 316.506 225.263 C 316.506 225.499 316.517 225.733 316.54 225.966 C 316.563 226.2 316.597 226.432 316.644 226.663 C 316.689 226.892 316.745 227.119 316.814 227.345 C 316.881 227.569 316.96 227.79 317.05 228.008 C 317.139 228.224 317.239 228.436 317.35 228.643 C 317.46 228.851 317.58 229.052 317.71 229.248 C 317.84 229.444 317.98 229.632 318.128 229.814 C 318.277 229.995 318.434 230.17 318.6 230.336 L 331.429 243.164" stroke="#000000" stroke-opacity="1" stroke-miterlimit="4" style="stroke-width: 4px;"/>
  <path stroke-linecap="round" fill="none" stroke-linejoin="round" d="M 334.413 222.279 L 340.38 216.312" stroke="#000000" stroke-opacity="1" stroke-miterlimit="4" style="stroke-width: 4px;"/>
  <path stroke-linecap="round" fill="none" stroke-linejoin="round" d="M 316.512 270.016 L 332.921 265.541 L 373.706 224.756 C 373.901 224.561 374.087 224.356 374.262 224.142 C 374.437 223.929 374.602 223.708 374.755 223.478 C 374.908 223.248 375.05 223.011 375.18 222.767 C 375.31 222.523 375.428 222.274 375.534 222.019 C 375.639 221.764 375.733 221.504 375.813 221.239 C 375.892 220.974 375.96 220.707 376.013 220.436 C 376.067 220.165 376.108 219.893 376.135 219.616 C 376.161 219.343 376.175 219.066 376.175 218.79 C 376.175 218.514 376.161 218.239 376.134 217.964 C 376.106 217.689 376.066 217.415 376.013 217.145 C 375.958 216.874 375.891 216.605 375.812 216.341 C 375.731 216.076 375.638 215.817 375.532 215.562 C 375.427 215.307 375.309 215.057 375.178 214.813 C 375.048 214.57 374.906 214.334 374.752 214.103 C 374.599 213.874 374.434 213.652 374.259 213.439 C 374.084 213.225 373.898 213.02 373.704 212.825 C 373.508 212.629 373.303 212.444 373.089 212.269 C 372.876 212.094 372.654 211.929 372.425 211.776 C 372.195 211.622 371.958 211.48 371.714 211.35 C 371.471 211.219 371.221 211.101 370.967 210.996 C 370.711 210.89 370.451 210.798 370.187 210.717 C 369.923 210.637 369.655 210.57 369.384 210.516 C 369.113 210.462 368.839 210.422 368.566 210.394 C 368.291 210.367 368.014 210.353 367.738 210.353 C 367.462 210.353 367.185 210.367 366.912 210.393 C 366.637 210.42 366.363 210.462 366.092 210.515 C 365.821 210.57 365.554 210.636 365.289 210.716 C 365.024 210.797 364.765 210.889 364.509 210.994 C 364.254 211.1 364.005 211.218 363.761 211.348 C 363.517 211.479 363.281 211.62 363.051 211.773 C 362.822 211.926 362.599 212.091 362.386 212.266 C 362.172 212.441 361.968 212.627 361.772 212.821 L 320.987 253.607 L 316.512 270.016 Z M 316.512 270.016" stroke="#000000" stroke-opacity="1" stroke-miterlimit="4" style="stroke-width: 4px;"/>
  <path stroke-linecap="round" fill="none" stroke-linejoin="round" d="M 364.249 252.115 L 370.216 246.148" stroke="#000000" stroke-opacity="1" stroke-miterlimit="4" style="stroke-width: 4px;"/>
  <path stroke-linecap="round" fill="none" stroke-linejoin="round" d="M 361.265 237.197 L 374.094 250.028 C 376.899 252.832 376.899 257.367 374.094 260.172 L 366.337 267.929 C 363.533 270.734 358.998 270.734 356.193 267.929 L 343.364 255.099" stroke="#000000" stroke-opacity="1" stroke-miterlimit="4" style="stroke-width: 4px;"/>
</svg>